<?xml version="1.0" encoding="utf-8"?>
<!-- Generator: Adobe Illustrator 20.0.0, SVG Export Plug-In . SVG Version: 6.00 Build 0)  -->
<svg version="1.1" id="Laag_1" xmlns="http://www.w3.org/2000/svg" xmlns:xlink="http://www.w3.org/1999/xlink" x="0px" y="0px"
	 viewBox="0 0 15.3 15.3" style="enable-background:new 0 0 15.3 15.3;" xml:space="preserve">
<style type="text/css">
	.st0{fill-rule:evenodd;clip-rule:evenodd;fill:#333333;stroke:#333333;stroke-width:0.3;stroke-miterlimit:6;}
</style>
<path class="st0" d="M7.5,0c0,4.1-3.4,7.5-7.5,7.5S-7.5,4.1-7.5,0S-4.1-7.5,0-7.5S7.5-4.1,7.5,0z M2.7,1.5l-1.2-2l1.9-1.1L4.3,0
	c0,0.1,0.1,0.2,0.1,0.2c0.1,0.3,0,0.5-0.2,0.7c0,0-0.1,0.1-0.1,0.1c0,0,0,0,0,0l-1.3,2c0,0-0.1,0.1-0.1,0.1C2.6,3.4,2.5,3.5,2.3,3.5
	l-1.1,0l0,0.8L0.2,2.5l1.1-2l0,1L2.7,1.5z M4.2,1.1C4.1,1.2,4.1,1.2,4.2,1.1C3.9,1.4,3.7,1.5,3.4,1.5l-0.7,0 M-1.9-4
	c0.2-0.2,0.4-0.3,0.7-0.2l0.2,0l2.4,0l0.2,0C1.8-4.1,1.9-4,2-3.9L2.5-3l0.7-0.4l-1,1.9L0-1.4l0.8-0.5L0.1-3.2l-1.1,2l-1.9-1L-2-3.9
	C-2-3.9-1.9-4-1.9-4z M-3.2,2.8c0,0.1,0,0.1,0.1,0.2C-3,3.2-2.8,3.4-2.5,3.5c0.1,0,0.2,0.1,0.4,0.1h1.8l0-2.2h-2.3L-3.1,2
	c-0.1,0.2-0.2,0.4-0.1,0.6C-3.2,2.7-3.2,2.8-3.2,2.8l-1.1-2.1c0-0.1,0-0.1-0.1-0.2c0-0.2,0-0.3,0.1-0.4l0.6-0.9l-0.7-0.4h2.1
	l1.2,1.9L-2,0.1l-0.7,1.3 M-1-4.3l0.1,0C-0.6-4.2-0.4-4-0.3-3.8l0.4,0.6"/>
</svg>
